<svg xmlns="http://www.w3.org/2000/svg" viewBox="0 0 96 96"><path d="M48 5 87 17v33c0 23-18.5 35-39 41C27.5 85 9 73 9 50V17Z" fill="#2F4A75"/><path d="M48 10.5 81.5 21v29c0 19.6-15.7 30-33.5 35.2C30.2 80 14.5 69.6 14.5 50V21Z" fill="none" stroke="#B79A64" stroke-width="1.6"/><path d="M30 40q6-7 12 0t12 0 12 0" stroke="#B79A64" stroke-width="3" fill="none" stroke-linecap="round"/><path d="M30 50q6-7 12 0t12 0 12 0" stroke="#D0BE95" stroke-width="3" fill="none" stroke-linecap="round"/><path d="M30 60q6-7 12 0t12 0 12 0" stroke="#F4F0E8" stroke-width="3" fill="none" stroke-linecap="round"/><circle cx="48" cy="26" r="5" fill="#B79A64"/><path d="M36 72h24l-2 6H38Z" fill="#F4F0E8"/><text x="48" y="78.6" font-family="Georgia,serif" font-size="7" font-weight="bold" fill="#243A5D" text-anchor="middle">VOL</text></svg>
